<svg id="Layer_1" data-name="Layer 1" xmlns="http://www.w3.org/2000/svg" viewBox="0 0 477.18 477.18"><defs><style>.cls-1{fill:#fff;}.cls-2{fill:#1dbbb0;fill-rule:evenodd;}</style></defs><rect class="cls-1" width="477.18" height="477.18" rx="238.59"/><path class="cls-2" d="M410.8,316.12c-2.92-24-15.62-46.2-36.39-58.58a63.68,63.68,0,0,0-7.94-4,68.08,68.08,0,0,0-32.14-4.77c-30,2.47-44.85,17.24-68.14,33.73-26.66,16.4-95.21,73.94-126.36,46.77-26.16-22.82-12.93-64.88,19.42-77.12S218,255.54,218,255.54c-27.09-14-88.18.76-74.79,34.25,8.52,21.3,28.64,16.74,46.58,7.85,22.38-11.08,44.6-29.81,71.2-29.78-18.67-40.51-124.7-63.36-162.62,5.7q-2,3.7-3.66,7.55a86.5,86.5,0,0,0-6,44.05c2.91,23.95,15.61,46.19,36.38,58.57a64.37,64.37,0,0,0,7.94,4c44.35,18.62,112.84-31.4,161-64.72,20.45-14.17,41.68-31.95,65.69-11,26.17,22.82,12.93,64.88-19.42,77.12s-58.77-3.4-58.77-3.4c27.09,14,88.19-.77,74.79-34.26-8.52-21.3-28.64-16.73-46.58-7.85-22.38,11.08-44.6,29.81-71.2,29.78,18.67,40.51,124.7,63.36,162.62-5.7q2-3.7,3.66-7.55a86.59,86.59,0,0,0,6.06-44" transform="translate(-11.15 -13.95)"/><path class="cls-2" d="M167.21,93.19a57.46,57.46,0,1,1-57.46,57.46,57.45,57.45,0,0,1,57.46-57.46" transform="translate(-11.15 -13.95)"/><path class="cls-2" d="M344.65,133.06a49.78,49.78,0,1,1-49.77,49.78,49.78,49.78,0,0,1,49.77-49.78" transform="translate(-11.15 -13.95)"/></svg>